<?xml version="1.0" encoding="UTF-8"?>
<svg version="1.1" xmlns="http://www.w3.org/2000/svg" width="1024" height="1024">
<path d="M0 0 C337.92 0 675.84 0 1024 0 C1024 337.92 1024 675.84 1024 1024 C686.08 1024 348.16 1024 0 1024 C0 686.08 0 348.16 0 0 Z " fill="#FDFDFD" transform="translate(0,0)"/>
<path d="M0 0 C1.6207972 0.00848969 1.6207972 0.00848969 3.27433777 0.01715088 C6.71850264 0.03950457 10.1616194 0.08970109 13.60546875 0.140625 C15.94334433 0.16069121 18.28123625 0.17894177 20.61914062 0.1953125 C26.34410636 0.23936605 32.06846267 0.30626879 37.79296875 0.390625 C37.909486 4.76539974 37.98032875 9.13977327 38.04296875 13.515625 C38.07648438 14.753125 38.11 15.990625 38.14453125 17.265625 C38.21823132 24.11973159 38.16426058 28.07465321 33.79296875 33.390625 C33.3270464 36.5787903 33.80159216 39.33200291 34.79296875 42.390625 C37.37493961 45.56843529 39.5777582 48.08049552 43.74609375 48.6640625 C48.00016593 48.85216773 50.89279229 48.82632587 54.29296875 46.078125 C57.48812382 42.6433333 57.93287298 40.35155828 57.91796875 35.828125 C57.92054688 35.04308594 57.923125 34.25804687 57.92578125 33.44921875 C57.92273241 31.32623523 57.92273241 31.32623523 56.79296875 29.390625 C56.79296875 19.820625 56.79296875 10.250625 56.79296875 0.390625 C95.07296875 0.390625 133.35296875 0.390625 172.79296875 0.390625 C172.79296875 27.390625 172.79296875 27.390625 169.79296875 32.390625 C169.25073031 36.65106987 169.4923134 38.81158506 171.48046875 42.640625 C173.90791107 45.52731317 175.26815574 47.05902897 178.79296875 48.390625 C183.46674518 48.5949431 186.84187706 48.00487172 190.79296875 45.453125 C193.76279844 42.39048813 193.94987481 40.62001933 193.98046875 36.453125 C193.99464844 35.57785156 194.00882813 34.70257813 194.0234375 33.80078125 C193.95960224 31.12818165 193.95960224 31.12818165 191.79296875 28.390625 C191.56591797 25.47973633 191.56591797 25.47973633 191.59765625 21.97265625 C191.60732422 20.09223633 191.60732422 20.09223633 191.6171875 18.17382812 C191.64232422 16.20833008 191.64232422 16.20833008 191.66796875 14.203125 C191.67800236 12.86784513 191.68712755 11.53255811 191.6953125 10.19726562 C191.71891583 6.92820485 191.75184281 3.65950472 191.79296875 0.390625 C198.37649316 0.28901211 204.95981452 0.2190703 211.54394531 0.17089844 C213.78262896 0.15081184 216.02126033 0.1235372 218.25976562 0.08886719 C221.48190224 0.04022036 224.70334376 0.01762626 227.92578125 0 C228.92288116 -0.02064514 229.91998108 -0.04129028 230.94729614 -0.06256104 C236.89362084 -0.06447117 240.28204144 0.4011245 244.79296875 4.390625 C247.22480458 8.03837874 247.67671334 11.44256145 248.36523438 15.67895508 C248.58030891 16.94798172 248.58030891 16.94798172 248.79972839 18.24264526 C249.27322586 21.04735602 249.73630369 23.85368107 250.19921875 26.66015625 C250.52728748 28.6178299 250.85595032 30.57540406 251.18518066 32.53288269 C251.87539189 36.64547193 252.56090623 40.75880575 253.24267578 44.87280273 C254.11072736 50.11081163 254.98634666 55.347515 255.8650589 60.583745 C256.70808942 65.60880189 257.54768065 70.63443142 258.38671875 75.66015625 C258.54445267 76.60379343 258.70218658 77.54743061 258.86470032 78.51966286 C260.4509706 88.0249417 261.98319467 97.52722038 263.31314087 107.07237244 C264.19971776 113.20350016 265.2509288 119.30709574 266.2890625 125.4140625 C266.52575546 126.81301959 266.76233011 128.2119967 266.99879456 129.61099243 C267.49097386 132.52047897 267.98438886 135.42975226 268.47875977 138.33886719 C269.10389219 142.01789026 269.72616939 145.69738919 270.34753323 149.3770504 C270.83468058 152.26018277 271.32324343 155.14307397 271.81221199 158.02589798 C272.15126177 160.02604741 272.48927879 162.02637181 272.82725525 164.02670288 C274.17890312 171.96996476 275.6176831 179.89202641 277.12194824 187.80747986 C278.10425442 193.05284204 278.9895707 198.31249292 279.85546875 203.578125 C280.02755859 204.61638428 280.19964844 205.65464355 280.37695312 206.72436523 C281.37461615 212.76771852 282.3314713 218.81494234 283.22265625 224.875 C283.70291857 227.83552115 284.23840909 230.77318547 284.80078125 233.71875 C290.8165722 265.58846411 290.8165722 265.58846411 282.79296875 277.390625 C282.21546875 278.31875 281.63796875 279.246875 281.04296875 280.203125 C273.13918561 287.8873586 263.54665363 289.6995675 252.95375061 289.63113403 C251.97996773 289.63284288 251.00618484 289.63455173 250.00289339 289.63631237 C246.74933059 289.63959905 243.49597535 289.628617 240.24243164 289.61767578 C237.9064535 289.61711149 235.570475 289.61742858 233.23449707 289.61856079 C226.8983057 289.6191346 220.56219006 289.60737554 214.22601628 289.59341288 C208.27351884 289.58217733 202.3210243 289.58016609 196.36851769 289.57810913 C184.58152031 289.57373617 172.79455068 289.56043793 161.00756836 289.54150391 C149.56030414 289.52313476 138.11304747 289.50898332 126.66577148 289.50048828 C125.9596926 289.49996283 125.25361371 289.49943739 124.52613849 289.49889602 C120.98380809 289.49628587 117.44147764 289.49375847 113.89914715 289.49127221 C84.53040314 289.47055215 55.16168624 289.43518842 25.79296875 289.390625 C28.43310992 286.75048383 29.79997488 287.08728515 33.48828125 286.921875 C79.06034112 284.02126653 133.69144453 267.31649915 168.79296875 237.390625 C169.60894531 236.69582031 170.42492187 236.00101563 171.265625 235.28515625 C177.20751763 230.67209254 177.20751763 230.67209254 180.0234375 224.09765625 C180.00925781 223.14246094 179.99507812 222.18726563 179.98046875 221.203125 C179.96371094 220.00945312 179.94695312 218.81578125 179.9296875 217.5859375 C179.84844566 214.68206249 179.71674909 211.78367081 179.5625 208.8828125 C178.40110594 186.40123458 178.70178465 163.89510981 178.79296875 141.390625 C180.2189999 142.31462049 181.64148394 143.24409146 183.0625 144.17578125 C183.85503174 144.69277588 184.64756348 145.20977051 185.46411133 145.74243164 C188.2564926 147.71867296 190.61616753 149.93702374 192.9921875 152.38671875 C194.86350845 153.61391473 194.86350845 153.61391473 197.63671875 153.453125 C201.99503053 151.98597054 203.82300586 149.49800115 206.60546875 145.953125 C207.65252098 144.67355789 208.70070761 143.39491824 209.75 142.1171875 C210.26256348 141.48458008 210.77512695 140.85197266 211.30322266 140.20019531 C214.03359371 136.88365807 216.95630106 133.74243799 219.85546875 130.57421875 C220.49484375 129.85363281 221.13421875 129.13304687 221.79296875 128.390625 C222.90671875 127.20146484 222.90671875 127.20146484 224.04296875 125.98828125 C226.23500923 122.73447116 226.53982437 121.23942098 225.79296875 117.390625 C224.03046428 115.31619963 222.48662116 113.78179463 220.41796875 112.078125 C219.87430664 111.60665039 219.33064453 111.13517578 218.77050781 110.64941406 C217.65558436 109.68288673 216.53510775 108.72272813 215.40917969 107.76904297 C213.07382839 105.7772917 210.81155246 103.7077924 208.54296875 101.640625 C205.08766804 98.54069541 201.62612413 95.44933666 198.1171875 92.41015625 C196.23354538 90.77344537 194.36514531 89.12245806 192.5 87.46484375 C180.85424964 77.18145631 170.52957012 71.19022129 154.79296875 69.390625 C151.96319633 69.47597898 151.96319633 69.47597898 149.79296875 70.390625 C147.64546879 73.15301366 147.64546879 73.15301366 145.79296875 76.390625 C141.35074312 82.9717 134.16840509 87.67850144 126.5703125 89.921875 C115.0430663 91.86740178 102.43171794 91.55908213 92.60546875 84.703125 C87.00299197 80.13477679 82.24814975 75.26751548 79.79296875 68.390625 C65.21779242 70.832152 53.04379876 73.13150949 41.79296875 83.390625 C41.30795898 83.82890625 40.82294922 84.2671875 40.32324219 84.71875 C37.81334231 86.98801821 35.32287635 89.274797 32.84765625 91.58203125 C30.5959093 93.67210855 28.30152375 95.7053536 25.984375 97.72265625 C21.54882486 101.59058667 17.1812952 105.52545553 12.85546875 109.515625 C12.08912109 110.20527344 11.32277344 110.89492188 10.53320312 111.60546875 C9.80552734 112.27964844 9.07785156 112.95382812 8.328125 113.6484375 C7.34404663 114.54780029 7.34404663 114.54780029 6.34008789 115.46533203 C4.46533372 117.7983463 4.01849608 119.42227854 3.79296875 122.390625 C5.29097626 125.02683474 5.29097626 125.02683474 7.60546875 127.515625 C8.43433594 128.47339844 9.26320313 129.43117188 10.1171875 130.41796875 C11.00019531 131.39894531 11.88320313 132.37992188 12.79296875 133.390625 C13.64503906 134.34066406 14.49710937 135.29070312 15.375 136.26953125 C17.05256479 138.12232554 18.73990296 139.96632367 20.4375 141.80078125 C23.11999358 144.75018962 25.64645265 147.80760986 28.125 150.9296875 C30.47184559 152.98523844 31.64447651 153.44436882 34.79296875 153.390625 C37.42028963 151.89755751 39.63583498 149.98546678 41.91796875 148.015625 C43.14681952 146.98349254 44.37848575 145.95470053 45.61328125 144.9296875 C46.42176514 144.23673584 46.42176514 144.23673584 47.24658203 143.52978516 C48.79296875 142.390625 48.79296875 142.390625 51.79296875 141.390625 C52.26923775 185.98039392 50.37537549 230.07441588 19.79296875 265.390625 C19.06335938 266.23496094 18.33375 267.07929687 17.58203125 267.94921875 C8.30766593 277.89588936 -3.36235967 284.29204034 -16.20703125 288.390625 C-16.82320313 288.58785156 -17.439375 288.78507812 -18.07421875 288.98828125 C-28.07209962 290.87432837 -37.89777814 290.34742333 -46.75 285.15234375 C-53.42607655 280.36552257 -57.22559464 274.38316143 -59.20703125 266.390625 C-61.04104247 252.95368564 -57.36612454 238.60853436 -55.20703125 225.390625 C-55.03623047 224.3392334 -54.86542969 223.2878418 -54.68945312 222.20458984 C-53.71894907 216.25692233 -52.72102516 210.31418886 -51.71142578 204.37304688 C-51.19200714 201.30178934 -50.68069605 198.22928021 -50.171875 195.15625 C-49.99978516 194.11750732 -49.82769531 193.07876465 -49.65039062 192.00854492 C-49.32965412 190.07127783 -49.0092956 188.1339481 -48.68945312 186.1965332 C-47.88419284 181.34898727 -47.05296686 176.50716143 -46.18991089 171.66954041 C-44.36817864 161.44981448 -42.68171084 151.20992735 -41.0184021 140.96334839 C-40.50603334 137.80748657 -39.99208696 134.65188491 -39.4777832 131.49633789 C-37.83316894 121.40260061 -36.19327928 111.30810049 -34.55641174 101.21310425 C-33.84191107 96.80872808 -33.12594101 92.40459142 -32.40975952 88.00048828 C-31.90815729 84.91202325 -31.40875791 81.82320741 -30.90942383 78.734375 C-29.5787522 70.53485271 -28.2336845 62.3450595 -26.6640625 54.1875 C-25.5640278 48.44271108 -24.59790563 42.69092907 -23.70703125 36.91015625 C-23.58322586 36.11282578 -23.45942047 35.3154953 -23.3318634 34.4940033 C-22.82573346 31.2292437 -22.32094585 27.96440972 -21.83203125 24.69702148 C-21.46683806 22.2664421 -21.08808585 19.83829248 -20.70703125 17.41015625 C-20.54750977 16.31016045 -20.54750977 16.31016045 -20.38476562 15.1879425 C-19.49585915 9.63304866 -17.86801178 6.30323214 -14.2199707 2.10253906 C-9.59481073 -0.5254183 -5.22649313 -0.10315563 0 0 Z " fill="#E14487" transform="translate(398.20703125,297.609375)"/>
<path d="M0 0 C2.51522068 1.95042562 4.91993399 3.96988026 7.296875 6.0859375 C7.93367187 6.65183594 8.57046875 7.21773437 9.2265625 7.80078125 C23.24961431 21.04477462 29.7221167 38.52200315 32.484375 57.1484375 C32.66162109 58.30021484 32.83886719 59.45199219 33.02148438 60.63867188 C33.45362682 63.45343754 33.8785814 66.26908643 34.296875 69.0859375 C34.626875 69.0859375 34.956875 69.0859375 35.296875 69.0859375 C35.31669434 69.91843018 35.33651367 70.75092285 35.35693359 71.60864258 C35.43508242 74.7007025 35.52177706 77.79237133 35.61425781 80.8840332 C35.67131592 82.8788911 35.71851942 84.8740229 35.765625 86.86914062 C35.80429687 88.12275391 35.84296875 89.37636719 35.8828125 90.66796875 C35.9142334 91.82530518 35.9456543 92.9826416 35.97802734 94.17504883 C36.09158533 97.27720778 36.09158533 97.27720778 38.296875 100.0859375 C38.95724234 104.12460511 39.19257391 108.26863103 37.3515625 112.00390625 C33.96177754 116.3210852 30.64307738 117.7864223 25.359375 118.4609375 C20.11743328 117.81906709 17.25724223 115.22321449 13.921875 111.2734375 C11.99001726 107.48402424 11.76195647 105.28886883 12.296875 101.0859375 C13.286875 99.4359375 14.276875 97.7859375 15.296875 96.0859375 C15.626875 87.1759375 15.956875 78.2659375 16.296875 69.0859375 C-21.983125 69.0859375 -60.263125 69.0859375 -99.703125 69.0859375 C-100.84010706 85.12945564 -100.84010706 85.12945564 -97.703125 100.0859375 C-97.27300681 104.29613288 -97.2331615 107.97286605 -98.890625 111.8984375 C-103.67652376 117.67452221 -103.67652376 117.67452221 -107.78125 118.5078125 C-112.95431866 118.82453099 -116.32510226 117.80659976 -120.328125 114.5078125 C-123.1043408 111.63695298 -123.58508755 109.01056418 -124.078125 105.1484375 C-123.703125 102.0859375 -123.703125 102.0859375 -121.72485352 99.34057617 C-119.3859556 95.57534878 -119.13678579 93.34480786 -118.98046875 88.94921875 C-118.95007507 88.27628281 -118.9196814 87.60334686 -118.8883667 86.91001892 C-118.82449675 85.47837053 -118.76824342 84.04636477 -118.71908569 82.61413574 C-118.58703306 78.88502266 -118.38618498 75.15965857 -118.1875 71.43359375 C-118.14948776 70.7037326 -118.11147552 69.97387146 -118.0723114 69.22189331 C-117.34435744 55.86479563 -115.4485776 43.29707038 -109.703125 31.0859375 C-109.03990234 29.67441406 -109.03990234 29.67441406 -108.36328125 28.234375 C-99.1676895 10.14886213 -83.04677649 -3.80714607 -63.82421875 -10.296875 C-42.47284419 -16.73930672 -18.23985487 -12.91550417 0 0 Z " fill="#FDFBFD" transform="translate(554.703125,228.9140625)"/>
<path d="M0 0 C0.99 0.33 1.98 0.66 3 1 C3.87341309 3.50126648 3.87341309 3.50126648 4.55273438 6.7800293 C4.80047607 7.96309662 5.04821777 9.14616394 5.3034668 10.36508179 C6.33320377 15.73885244 7.28316487 21.11814787 8.15625 26.51953125 C8.34465454 27.66177658 8.53305908 28.80402191 8.72717285 29.98088074 C9.32203355 33.59078987 9.91137966 37.20156857 10.5 40.8125 C11.27887434 45.56940288 12.06024122 50.32588955 12.84375 55.08203125 C13.03135391 56.22178909 13.21895782 57.36154694 13.4122467 58.5358429 C14.6351128 65.92032591 15.95047784 73.27942906 17.36083984 80.63012695 C18.34191905 85.80271529 19.20824971 90.99269938 20.0625 96.1875 C20.32063477 97.74488892 20.32063477 97.74488892 20.58398438 99.33374023 C21.5816474 105.37709352 22.53850255 111.42431734 23.4296875 117.484375 C23.90994982 120.44489615 24.44544034 123.38256047 25.0078125 126.328125 C31.02360345 158.19783911 31.02360345 158.19783911 23 170 C22.4225 170.928125 21.845 171.85625 21.25 172.8125 C13.34621686 180.4967336 3.75368488 182.3089425 -6.83921814 182.24050903 C-7.81300102 182.24221788 -8.78678391 182.24392673 -9.79007536 182.24568737 C-13.04363816 182.24897405 -16.2969934 182.237992 -19.55053711 182.22705078 C-21.88651525 182.22648649 -24.22249375 182.22680358 -26.55847168 182.22793579 C-32.89466305 182.2285096 -39.23077869 182.21675054 -45.56695247 182.20278788 C-51.51944991 182.19155233 -57.47194445 182.18954109 -63.42445106 182.18748413 C-75.21144844 182.18311117 -86.99841807 182.16981293 -98.78540039 182.15087891 C-110.23266461 182.13250976 -121.67992128 182.11835832 -133.12719727 182.10986328 C-133.83327615 182.10933783 -134.53935504 182.10881239 -135.26683026 182.10827102 C-138.80916066 182.10566087 -142.35149111 182.10313347 -145.8938216 182.10064721 C-175.26256561 182.07992715 -204.63128251 182.04456342 -234 182 C-231.364414 179.364414 -229.9948501 179.68117344 -226.3125 179.5 C-218.80684342 179.0382426 -211.44109423 178.0600729 -204 177 C-204.33 177.66 -204.66 178.32 -205 179 C-185.662533 181.38675 -185.662533 181.38675 -166.84277344 178.05517578 C-163.369651 176.76602814 -159.90876942 176.22825647 -156.26171875 175.703125 C-154.71524822 175.4680801 -153.16886477 175.23246164 -151.62255859 174.99633789 C-150.41391144 174.81435349 -150.41391144 174.81435349 -149.18084717 174.62869263 C-105.21695687 167.95140303 -58.34586168 155.05550596 -30 117.8515625 C-19.45899984 102.82240212 -12.17344939 87.58972791 -7 70 C-6.7009375 69.0821875 -6.401875 68.164375 -6.09375 67.21875 C-0.8640208 51.11118406 -0.85129562 34.06829753 -1 17.3125 C-1.02653526 14.24609797 -1.04647941 11.17975401 -1.0625 8.11328125 C-1.07494751 7.06192741 -1.07494751 7.06192741 -1.08764648 5.98933411 C-1.09620611 4.32598817 -1.05333267 2.66251274 -1 1 C-0.67 0.67 -0.34 0.34 0 0 Z " fill="#F23E5B" transform="translate(658,405)"/>
<path d="M0 0 C8.58310497 5.7276362 14.28183509 14.99611812 16.5625 24.98828125 C18.52636678 38.50739986 16.79132577 50.76911712 8.6875 61.97265625 C0.16860185 72.20716583 -10.54802811 76.98600273 -23.6171875 78.25390625 C-35.50229032 78.78787464 -46.05114341 74.71779695 -55 67 C-63.26285143 59.22224748 -67.78155062 50.17997323 -68.203125 38.828125 C-68.44857644 24.70392877 -66.83749167 14.87815194 -57 4 C-40.14382697 -11.22410786 -18.83887903 -11.88166383 0 0 Z " fill="#B631A4" transform="translate(411,677)"/>
<path d="M0 0 C11.54117845 -0.4840337 22.42777685 2.63442379 31.29296875 10.1875 C39.48092113 17.92964735 44.89634976 26.65936653 45.49609375 38.04296875 C45.74482637 51.71853995 43.71775088 62.75774736 34.359375 73.3828125 C24.8324183 82.57763677 15.497593 85.70531775 2.54296875 85.8125 C1.57278809 85.82345703 0.60260742 85.83441406 -0.39697266 85.84570312 C-6.99657484 85.71486158 -11.92242017 84.3325747 -17.70703125 81.1875 C-18.55394531 80.74148438 -19.40085937 80.29546875 -20.2734375 79.8359375 C-30.29831704 73.44041748 -36.42174748 64.34407619 -39.28515625 52.87109375 C-41.3966609 39.43957806 -39.4521654 27.51213657 -31.4609375 16.31640625 C-24.95009866 8.41349496 -16.95103052 2.49672565 -6.83203125 0.375 C-4.55359441 0.22888782 -2.27844109 0.1578141 0 0 Z " fill="#EE5156" transform="translate(615.70703125,668.8125)"/>
<path d="M0 0 C0.33 0 0.66 0 1 0 C2.91081946 30.02109689 -9.54501411 60.53360761 -29 83 C-29.72960937 83.84433594 -30.45921875 84.68867187 -31.2109375 85.55859375 C-40.48530282 95.50526436 -52.15532842 101.90141534 -65 106 C-65.61617188 106.19722656 -66.23234375 106.39445313 -66.8671875 106.59765625 C-76.86506837 108.48370337 -86.69074689 107.95679833 -95.54296875 102.76171875 C-102.2190453 97.97489757 -106.01856339 91.99253643 -108 84 C-110.09008653 68.68691702 -105.52110051 52.06774468 -103 37 C-102.34 37 -101.68 37 -101 37 C-101 39.31 -101 41.62 -101 44 C-100.43410156 44.11472656 -99.86820312 44.22945312 -99.28515625 44.34765625 C-96.74830855 45.07185038 -94.74241732 46.15783421 -92.4375 47.4375 C-77.03698432 55.18252678 -58.88610523 53.03117433 -43 48 C-38.08710979 46.32368576 -33.53551846 44.38555444 -29.0625 41.75 C-26 40 -26 40 -23 40 C-23 39.34 -23 38.68 -23 38 C-22.39712158 37.76313477 -21.79424316 37.52626953 -21.1730957 37.28222656 C-18.47554474 35.69054724 -17.69448453 34.23705917 -16.23046875 31.484375 C-15.73708008 30.56865723 -15.24369141 29.65293945 -14.73535156 28.70947266 C-14.22456055 27.73284668 -13.71376953 26.7562207 -13.1875 25.75 C-12.65995117 24.76177246 -12.13240234 23.77354492 -11.58886719 22.75537109 C-7.59370759 15.2365836 -3.71332727 7.66200626 0 0 Z " fill="#F9A439" transform="translate(447,480)"/>
<path d="M0 0 C0.7118042 0.00821777 1.4236084 0.01643555 2.15698242 0.02490234 C12.38907347 0.24323077 21.46735584 3.1977864 29.2421875 10.140625 C38.81160716 20.57252454 40.36717489 31.65390496 40.29296875 45.44140625 C40.125 48.25 40.125 48.25 39.125 49.25 C37.31444975 49.34376053 35.50022799 49.3674411 33.68725586 49.36352539 C32.52612778 49.36344986 31.36499969 49.36337433 30.16868591 49.36329651 C28.27340904 49.35555458 28.27340904 49.35555458 26.33984375 49.34765625 C25.05388809 49.3462413 23.76793243 49.34482635 22.44300842 49.34336853 C19.01856557 49.33954418 15.59416491 49.32971462 12.16973877 49.31866455 C8.67761811 49.30844864 5.18549066 49.30387053 1.69335938 49.29882812 C-5.16277778 49.28809227 -12.01888687 49.27101684 -18.875 49.25 C-18.26261383 51.03380953 -17.64106986 52.81447711 -17.015625 54.59375 C-16.67047852 55.58568359 -16.32533203 56.57761719 -15.96972656 57.59960938 C-13.96326809 62.45735094 -10.90319433 63.73590283 -6.375 66 C2.09770685 68.89350932 11.03877889 68.06343908 19.09765625 64.40625 C21.52849863 63.01987361 23.30811656 61.36969735 25.125 59.25 C27.125 59.25 27.125 59.25 28.74609375 60.859375 C29.34550781 61.56578125 29.94492187 62.2721875 30.5625 63 C31.15933594 63.69609375 31.75617188 64.3921875 32.37109375 65.109375 C34.01581098 67.11673589 35.58626108 69.16070312 37.125 71.25 C34.63399969 77.23872614 29.05495877 79.95098331 23.33203125 82.48828125 C18.29741718 84.39796245 13.52321424 85.87117795 8.125 86.25 C7.25488281 86.31316406 6.38476562 86.37632812 5.48828125 86.44140625 C-6.07478769 86.90997506 -16.99410772 83.83576215 -25.875 76.25 C-35.12357204 67.34824941 -39.9957882 57.63405901 -40.25537109 44.70483398 C-40.22434917 31.60935333 -37.26905479 20.99688313 -27.9921875 11.27734375 C-20.02331711 3.91785756 -10.93083035 -0.15248114 0 0 Z " fill="#F9953B" transform="translate(771.875,668.75)"/>
<path d="M0 0 C2.51522068 1.95042562 4.91993399 3.96988026 7.296875 6.0859375 C7.93367187 6.65183594 8.57046875 7.21773437 9.2265625 7.80078125 C22.26017477 20.11030395 31.18646631 38.57178585 32.47076416 56.51544189 C32.52520727 58.95038021 32.52272031 61.37717345 32.4921875 63.8125 C32.4893576 64.68619232 32.48652771 65.55988464 32.48361206 66.46005249 C32.47254803 69.21049564 32.44747081 71.96059524 32.421875 74.7109375 C32.41182734 76.59244317 32.40270464 78.47395401 32.39453125 80.35546875 C32.37265412 84.93242107 32.33822219 89.50912135 32.296875 94.0859375 C27.676875 94.0859375 23.056875 94.0859375 18.296875 94.0859375 C18.28285645 92.5225061 18.28285645 92.5225061 18.26855469 90.92749023 C18.22806999 86.98519259 18.16216452 83.04362855 18.08935547 79.10180664 C18.06147922 77.40984669 18.04010265 75.71776457 18.02587891 74.02563477 C17.82952726 51.96225509 12.43817265 35.21636457 -2.27734375 18.2734375 C-6.13488774 14.54751575 -10.90658221 12.25687183 -15.640625 9.8359375 C-16.64331421 9.32305176 -16.64331421 9.32305176 -17.66625977 8.79980469 C-30.0237254 2.75295115 -44.87325637 2.20544089 -58.296875 4.7734375 C-60.93730669 5.68393119 -63.2616386 6.73470106 -65.703125 8.0859375 C-66.53328125 8.51003906 -67.3634375 8.93414062 -68.21875 9.37109375 C-83.87564477 17.99199133 -94.25521199 32.21709843 -99.703125 49.0859375 C-101.30562665 55.11135879 -102.02296028 60.83553081 -102.1171875 67.05859375 C-102.13655365 67.86711288 -102.1559198 68.67563202 -102.1758728 69.50865173 C-102.2349749 72.05514447 -102.28177211 74.60168414 -102.328125 77.1484375 C-102.36636887 78.88999213 -102.40542417 80.63152914 -102.4453125 82.37304688 C-102.54061787 86.61053156 -102.62489982 90.8481045 -102.703125 95.0859375 C-103.46238281 95.01375 -104.22164063 94.9415625 -105.00390625 94.8671875 C-105.99777344 94.774375 -106.99164063 94.6815625 -108.015625 94.5859375 C-109.00175781 94.493125 -109.98789062 94.4003125 -111.00390625 94.3046875 C-113.75014639 94.04554893 -113.75014639 94.04554893 -116.703125 94.0859375 C-116.80347745 88.68234415 -116.87527836 83.27931621 -116.92285156 77.875 C-116.94272397 76.04417449 -116.96983163 74.21341032 -117.00488281 72.3828125 C-117.28468245 57.37238515 -116.24953728 43.2490105 -108.953125 29.7734375 C-108.60878418 29.11593506 -108.26444336 28.45843262 -107.90966797 27.78100586 C-97.83398676 9.01567962 -82.02992335 -4.19966145 -61.75390625 -10.88671875 C-40.97107533 -16.4931286 -17.59852182 -12.46138105 0 0 Z " fill="#B268D3" transform="translate(554.703125,228.9140625)"/>
<path d="M0 0 C12.80697832 -0.42267255 22.2873118 3.17586375 32.86328125 10.1953125 C31.55597375 13.63463084 30.05291791 16.80832155 28.23828125 20.0078125 C27.56925781 21.19310547 27.56925781 21.19310547 26.88671875 22.40234375 C26.54898438 22.99402344 26.21125 23.58570313 25.86328125 24.1953125 C21.99094261 23.07437237 18.76984302 21.56799407 15.30078125 19.5703125 C9.32555385 16.49656123 3.46035675 16.34609546 -3.13671875 17.1953125 C-6.33701047 18.4152942 -6.33701047 18.4152942 -8.13671875 21.1953125 C-8.20566595 22.56874081 -8.22139583 23.94533352 -8.19921875 25.3203125 C-8.17859375 26.5990625 -8.15796875 27.8778125 -8.13671875 29.1953125 C-3.20905963 30.86719685 1.72594583 32.45445297 6.71337891 33.94018555 C27.16892961 40.11513015 27.16892961 40.11513015 32.86328125 49.1953125 C35.68413581 55.14828832 35.83842007 61.29475724 34.24609375 67.6640625 C31.27268248 75.34756772 25.63905762 80.23534534 18.23828125 83.6328125 C6.20861087 87.49709209 -8.94296405 86.9764742 -20.41796875 81.70703125 C-24.50305073 79.43558481 -28.39998269 77.00510628 -32.13671875 74.1953125 C-30.59126729 68.71598461 -27.98128663 64.08102069 -25.13671875 59.1953125 C-21.29843345 60.66122589 -17.67087483 62.39155119 -14.01171875 64.2578125 C-5.85921093 68.41538818 1.56930752 69.72069476 10.55078125 67.1328125 C13.16372051 65.28129215 13.16372051 65.28129215 14.05078125 61.7578125 C14.23709239 58.1939595 14.23709239 58.1939595 12.08203125 56.2109375 C6.55017482 52.74681382 0.25749562 51.28762373 -5.97070312 49.45898438 C-14.35017023 46.84795293 -23.00124727 43.24672193 -27.76171875 35.4453125 C-30.13830916 29.55500707 -30.17201868 23.51113484 -28.2890625 17.48046875 C-24.64921185 9.27538169 -18.37354887 4.52509489 -10.13671875 1.1953125 C-6.71540074 0.41126046 -3.5007683 0.21798059 0 0 Z " fill="#D23589" transform="translate(469.13671875,668.8046875)"/>
<path d="M0 0 C1.70331934 1.28617991 3.39050729 2.59818376 5 4 C3.66300057 7.72638951 2.01835555 10.66142271 -0.375 13.8125 C-0.96023438 14.60269531 -1.54546875 15.39289062 -2.1484375 16.20703125 C-4 18 -4 18 -8 18 C-8.721875 17.401875 -9.44375 16.80375 -10.1875 16.1875 C-15.65907036 11.93183417 -22.10814253 10.2615867 -29 11 C-35.07087387 12.44944739 -40.46935087 14.32841415 -44.15234375 19.671875 C-48.49404436 26.90289238 -49.30221715 34.51656755 -47.3515625 42.73046875 C-44.92703648 49.5792367 -41.26710781 53.37618264 -35.1640625 57.12890625 C-29.58951401 59.37281295 -22.62736714 58.89883613 -17.03125 56.984375 C-13.13787136 55.08349013 -9.94927609 53.20287626 -7 50 C-3.66950878 51.42630308 -1.68261063 53.15014396 0.6875 55.875 C1.28949219 56.55304688 1.89148438 57.23109375 2.51171875 57.9296875 C4.03491872 60.0485746 4.7647247 61.4066245 5 64 C-2.02257335 72.83485034 -13.12008187 76.99985655 -24.046875 78.38671875 C-37.55350053 78.90483005 -48.9347348 73.70169036 -58.75 64.75 C-68.14429875 54.89797439 -69.50372057 42.55463606 -69.2421875 29.609375 C-68.80741769 18.90801115 -64.69654076 10.87298229 -57.234375 3.1796875 C-53.51285691 -0.1562679 -49.51338271 -2.8575715 -45 -5 C-44.36835938 -5.30035156 -43.73671875 -5.60070312 -43.0859375 -5.91015625 C-29.14256782 -11.52405977 -12.209921 -8.1233352 0 0 Z " fill="#8834CA" transform="translate(287,677)"/>
<path d="M0 0 C0 8.58 0 17.16 0 26 C6.93 26 13.86 26 21 26 C21 31.61 21 37.22 21 43 C14.07 43 7.14 43 0 43 C0.07412521 48.58750694 0.15706701 54.17344977 0.26245117 59.76025391 C0.29562793 61.65925899 0.32368231 63.55836096 0.34643555 65.45751953 C0.38011518 68.19345235 0.4324372 70.92850311 0.48828125 73.6640625 C0.49467117 74.50804596 0.5010611 75.35202942 0.50764465 76.22158813 C0.63493083 81.3684052 1.13477574 86.13477574 5 90 C10.07454515 90.3632306 15.01657457 90.02224111 20 89 C22.23891142 94.45126259 23.47606294 99.13190493 24 105 C17.84148003 108.71835168 12.49667578 109.45873879 5.4375 109.5625 C4.23323364 109.60213867 4.23323364 109.60213867 3.00463867 109.64257812 C-3.82502649 109.60340356 -8.5435061 107.25705906 -13.49365234 102.5925293 C-19.85886249 95.50973066 -20.43178113 88.90520877 -20.29296875 79.81640625 C-20.28872391 78.76090073 -20.28447906 77.7053952 -20.28010559 76.61790466 C-20.26339049 73.26583729 -20.22575088 69.9143839 -20.1875 66.5625 C-20.17244393 64.28190976 -20.15875714 62.00131004 -20.14648438 59.72070312 C-20.11351034 54.14690093 -20.06177702 48.57355436 -20 43 C-24.29 43 -28.58 43 -33 43 C-33 37.39 -33 31.78 -33 26 C-28.71 26 -24.42 26 -20 26 C-20 19.4 -20 12.8 -20 6 C-5.2 0 -5.2 0 0 0 Z " fill="#E94568" transform="translate(545,645)"/>
<path d="M0 0 C6.6 0 13.2 0 20 0 C20 38.28 20 76.56 20 116 C13.73 116 7.46 116 1 116 C0 115 0 115 -0.12304783 113.08095455 C-0.12212604 112.2338268 -0.12120424 111.38669905 -0.12025452 110.51390076 C-0.12162918 109.54489838 -0.12300385 108.575896 -0.12442017 107.57752991 C-0.12082489 106.50579025 -0.11722961 105.4340506 -0.11352539 104.32983398 C-0.11367142 103.20802734 -0.11381744 102.0862207 -0.1139679 100.93041992 C-0.1132682 97.20229189 -0.10547315 93.47421311 -0.09765625 89.74609375 C-0.09579227 87.16919482 -0.09436827 84.59229553 -0.09336853 82.01539612 C-0.08993342 75.91324885 -0.0820426 69.81112206 -0.07201904 63.70898253 C-0.06085689 56.7635075 -0.0553472 49.81803165 -0.05032361 42.87254989 C-0.03985996 28.58169007 -0.02206065 14.29084631 0 0 Z " fill="#9E31B6" transform="translate(307,637)"/>
<path d="M0 0 C1 1 1 1 1.11352539 2.85766602 C1.10828857 3.64842529 1.10305176 4.43918457 1.09765625 5.25390625 C1.09443359 6.10791016 1.09121094 6.96191406 1.08789062 7.84179688 C1.07532227 9.18854492 1.07532227 9.18854492 1.0625 10.5625 C1.05798828 11.46419922 1.05347656 12.36589844 1.04882812 13.29492188 C1.03700225 15.53001314 1.0205222 17.76497437 1 20 C0.154375 20.02578125 -0.69125 20.0515625 -1.5625 20.078125 C-10.33937271 20.51696864 -16.84798475 21.50768062 -23.17236328 27.89477539 C-27.23461058 32.79282678 -26.85521485 37.93955214 -26.8046875 44.05859375 C-26.82524704 45.77502831 -26.82524704 45.77502831 -26.84622192 47.52613831 C-26.88346835 51.16366075 -26.87981016 54.79981418 -26.875 58.4375 C-26.8931303 60.91082858 -26.91393402 63.38413911 -26.9375 65.85742188 C-26.9893019 71.9051768 -27.00443376 77.95203541 -27 84 C-33.6 84 -40.2 84 -47 84 C-47 56.94 -47 29.88 -47 2 C-40.73 2 -34.46 2 -28 2 C-25.95301586 4.04698414 -26.29954307 8.30411241 -26 11 C-25.49210938 10.52949219 -24.98421875 10.05898438 -24.4609375 9.57421875 C-16.72977704 2.58142754 -10.54417681 -0.40554526 0 0 Z " fill="#F77943" transform="translate(724,669)"/>
<path d="M0 0 C38.28 0 76.56 0 116 0 C116 8.91 116 17.82 116 27 C115.01 27.99 114.02 28.98 113 30 C113 24.72 113 19.44 113 14 C112.01 14.33 111.02 14.66 110 15 C107.62072154 15.19070553 105.25840164 15.33111758 102.875 15.4375 C96.61360915 15.74486047 90.35713341 16.09836044 84.1015625 16.5078125 C81.9499053 16.64640578 79.79822563 16.78464666 77.64654541 16.92288208 C76.24322338 17.01415846 74.84001747 17.10724276 73.43695068 17.20236206 C55.73342505 18.39850309 38.10006886 17.99513222 20.375 17.5 C18.57813092 17.45160277 16.78125591 17.40342472 14.984375 17.35546875 C10.65617799 17.23949168 6.3280706 17.12059838 2 17 C1.97294271 18.77074917 1.95357805 20.54161711 1.9375 22.3125 C1.92589844 23.29863281 1.91429687 24.28476562 1.90234375 25.30078125 C1.87670138 28.09963849 1.87670138 28.09963849 3 31 C2.34 31 1.68 31 1 31 C-3.6236109 21.75277819 0 10.33870828 0 0 Z " fill="#CC43BC" transform="translate(455,298)"/>
<path d="M0 0 C5.49478541 3.27740153 8.25686042 7.35566121 10.34375 13.35546875 C12.59652545 22.43361743 10.45872565 30.0825487 6.375 38.25 C2.28072382 42.99074084 -1.93551051 45.56917324 -8.1953125 46.44921875 C-14.76229598 46.67014975 -20.84767627 46.42631448 -26 42 C-33.17303436 33.28539246 -33.77409507 25.00303286 -33.2265625 14.07519531 C-32.75859318 9.78883838 -31.0127934 6.97335893 -28 4 C-27.50757813 3.50371094 -27.01515625 3.00742187 -26.5078125 2.49609375 C-18.56013752 -4.73093713 -9.29558202 -4.39701092 0 0 Z " fill="#FDFBFB" transform="translate(630,690)"/>
<path d="M0 0 C4.74752922 3.55375978 8.86529821 8.04025999 10 14 C11.32676815 30.72475347 11.32676815 30.72475347 7 37 C2.37603835 42.02430465 -2.11999615 45.47730518 -9.015625 46.40625 C-15.88987751 46.6055037 -20.61013402 46.13587006 -26.125 41.84765625 C-32.4436749 35.62112869 -34.11421939 29.40141102 -34.3125 20.6875 C-34.22453913 13.59465519 -33.03022885 9.18838276 -28.12890625 4.03125 C-19.65279871 -3.78791915 -10.44575111 -5.30726672 0 0 Z " fill="#FDFBFD" transform="translate(397,690)"/>
<path d="M0 0 C0.96679688 0.06058594 1.93359375 0.12117187 2.9296875 0.18359375 C14.09907714 1.70669234 26.39039991 8.88558614 34 17 C34.51433594 17.51820313 35.02867187 18.03640625 35.55859375 18.5703125 C41.70933833 25.18435991 47.49876398 33.99258387 49 43 C48.53125 45.1875 48.53125 45.1875 48 47 C47.67128906 46.27296875 47.34257813 45.5459375 47.00390625 44.796875 C40.21720566 30.45100383 32.1384918 19.9482982 18.0625 12.75 C17.39404053 12.40807617 16.72558105 12.06615234 16.03686523 11.71386719 C3.6793996 5.66701365 -11.17013137 5.11950339 -24.59375 7.6875 C-27.23418169 8.59799369 -29.5585136 9.64876356 -32 11 C-32.83015625 11.42410156 -33.6603125 11.84820312 -34.515625 12.28515625 C-50.17251977 20.90605383 -60.55208699 35.13116093 -66 52 C-67.60250165 58.02542129 -68.31983528 63.74959331 -68.4140625 69.97265625 C-68.43342865 70.78117538 -68.4527948 71.58969452 -68.4727478 72.42271423 C-68.5318499 74.96920697 -68.57864711 77.51574664 -68.625 80.0625 C-68.66324387 81.80405463 -68.70229917 83.54559164 -68.7421875 85.28710938 C-68.83749287 89.52459406 -68.92177482 93.762167 -69 98 C-72.63 97.34 -76.26 96.68 -80 96 C-79.505 95.01 -79.505 95.01 -79 94 C-78.34 94 -77.68 94 -77 94 C-76.9906543 93.14994385 -76.98130859 92.2998877 -76.97167969 91.42407227 C-76.58722378 63.57551875 -74.19573868 38.38075528 -54.140625 17.01953125 C-38.68660534 2.55533516 -20.39753726 -1.35574182 0 0 Z " fill="#8937BF" transform="translate(521,226)"/>
<path d="M0 0 C1.07770157 0.00848969 2.15540314 0.01697937 3.26576233 0.02572632 C6.68993339 0.05917074 10.11170342 0.13443845 13.53515625 0.2109375 C15.86389816 0.24104845 18.19267717 0.26842226 20.52148438 0.29296875 C26.2143535 0.35893239 31.90583331 0.45919175 37.59765625 0.5859375 C37.74357649 4.93974843 37.83194028 9.29292561 37.91015625 13.6484375 C37.95205078 14.87755859 37.99394531 16.10667969 38.03710938 17.37304688 C38.1377054 24.83727165 37.801473 29.07071124 32.59765625 34.5859375 C32.26765625 33.9259375 31.93765625 33.2659375 31.59765625 32.5859375 C32.07203125 31.9465625 32.54640625 31.3071875 33.03515625 30.6484375 C34.75147152 27.28445956 34.76364149 25.60889492 34.6953125 21.89453125 C34.68121338 20.90122803 34.66711426 19.9079248 34.65258789 18.88452148 C34.62539673 17.74672241 34.62539673 17.74672241 34.59765625 16.5859375 C9.58918653 17.32694896 9.58918653 17.32694896 -14.40234375 23.5859375 C-15.12421875 23.8334375 -15.84609375 24.0809375 -16.58984375 24.3359375 C-19.66302603 26.45537355 -20.07236096 29.96330744 -20.79321289 33.50796509 C-21.16865043 35.67243991 -21.50933905 37.83993646 -21.83984375 40.01171875 C-22.09745213 41.62828775 -22.35527067 43.24482327 -22.61328125 44.86132812 C-23.01139076 47.39347256 -23.40660297 49.92601462 -23.79785156 52.45922852 C-24.17919765 54.91550425 -24.57134208 57.36986564 -24.96484375 59.82421875 C-25.07948975 60.58769119 -25.19413574 61.35116364 -25.31225586 62.13777161 C-25.6081895 63.96602556 -25.99661446 65.77887552 -26.40234375 67.5859375 C-27.39234375 68.0809375 -27.39234375 68.0809375 -28.40234375 68.5859375 C-27.42884784 56.78121889 -25.33404747 45.12537596 -23.37371826 33.45347595 C-22.68483402 29.34159322 -22.04304586 25.22530803 -21.4296875 21.1015625 C-21.13024972 19.24197067 -20.82957025 17.38257813 -20.52734375 15.5234375 C-20.41479248 14.69287842 -20.30224121 13.86231934 -20.1862793 13.0065918 C-19.30065446 7.86048082 -17.67055055 5.10246495 -13.61663818 1.81782532 C-9.32278247 -0.57099365 -4.79363165 -0.1433328 0 0 Z " fill="#D045B6" transform="translate(398.40234375,297.4140625)"/>
<path d="M0 0 C22.42485335 -0.84243056 40.69909654 2.59797619 58 18 C58.63679687 18.56589844 59.27359375 19.13179687 59.9296875 19.71484375 C72.96329977 32.02436645 81.88959131 50.48584835 83.17388916 68.42950439 C83.22833227 70.86444271 83.22584531 73.29123595 83.1953125 75.7265625 C83.1924826 76.60025482 83.18965271 77.47394714 83.18673706 78.37411499 C83.17567303 81.12455814 83.15059581 83.87465774 83.125 86.625 C83.11495234 88.50650567 83.10582964 90.38801651 83.09765625 92.26953125 C83.07577912 96.84648357 83.04134719 101.42318385 83 106 C80.69 105.67 78.38 105.34 76 105 C75.98541748 103.79053711 75.97083496 102.58107422 75.95581055 101.33496094 C75.89729655 96.79463953 75.8200727 92.25478692 75.73754883 87.71484375 C75.70454693 85.75984374 75.6764403 83.8047541 75.65356445 81.84960938 C75.38143067 59.1988149 70.86761591 41.15294145 54.70605469 24.60888672 C49.94204934 20.11621425 44.5117282 16.502459 39 13 C38.16339844 12.45730469 37.32679688 11.91460937 36.46484375 11.35546875 C31.21486161 8.46839458 25.64917109 7.43291653 19.8125 6.4375 C19.06943604 6.30819092 18.32637207 6.17888184 17.56079102 6.0456543 C11.7288554 5.05925506 5.90541694 4.36988573 0 4 C0 2.66666667 0 1.33333333 0 0 Z " fill="#8631BF" transform="translate(504,217)"/>
<path d="M0 0 C0.33 0 0.66 0 1 0 C1 12.21 1 24.42 1 37 C2.485 36.505 2.485 36.505 4 36 C5.9375 35.8671875 5.9375 35.8671875 8 35.875 C8.680625 35.87242187 9.36125 35.86984375 10.0625 35.8671875 C12 36 12 36 15 37 C15 26.11 15 15.22 15 4 C15.33 4 15.66 4 16 4 C16.33 6.64 16.66 9.28 17 12 C17.33 12 17.66 12 18 12 C18.01981934 12.83249268 18.03963867 13.66498535 18.06005859 14.52270508 C18.13820742 17.614765 18.22490206 20.70643383 18.31738281 23.7980957 C18.37444092 25.7929536 18.42164442 27.7880854 18.46875 29.78320312 C18.50742187 31.03681641 18.54609375 32.29042969 18.5859375 33.58203125 C18.63306885 35.31803589 18.63306885 35.31803589 18.68115234 37.08911133 C18.79471033 40.19127028 18.79471033 40.19127028 21 43 C21.66036734 47.03866761 21.89569891 51.18269353 20.0546875 54.91796875 C16.66490254 59.2351477 13.34620238 60.7004848 8.0625 61.375 C2.82055828 60.73312959 -0.03963277 58.13727699 -3.375 54.1875 C-5.32632523 50.35990051 -5.6065099 48.24556929 -5 44 C-4.34225586 43.12134277 -3.68451172 42.24268555 -3.00683594 41.33740234 C-0.44216377 37.07230885 -0.39811046 33.9769905 -0.390625 29.1015625 C-0.37408875 28.26660248 -0.35755249 27.43164246 -0.34051514 26.57138062 C-0.29219655 23.92251105 -0.27070075 21.27421488 -0.25 18.625 C-0.22182672 16.82158599 -0.19189739 15.0181985 -0.16015625 13.21484375 C-0.08644228 8.80994308 -0.03676943 4.4053577 0 0 Z " fill="#F8F1F9" transform="translate(572,286)"/>
<path d="M0 0 C6.60189418 -0.07612856 13.20367494 -0.12863283 19.8059082 -0.16479492 C22.05139394 -0.17987182 24.29685029 -0.20033653 26.54223633 -0.22631836 C29.77172099 -0.26274918 33.00081594 -0.27973755 36.23046875 -0.29296875 C37.23272995 -0.30845261 38.23499115 -0.32393646 39.2676239 -0.33988953 C44.330551 -0.3411092 47.88716578 -0.3356663 52 3 C51 5 51 5 49.04833984 5.71435547 C48.19449707 5.92979004 47.3406543 6.14522461 46.4609375 6.3671875 C45.49816895 6.61130371 44.53540039 6.85541992 43.54345703 7.10693359 C42.49786621 7.36039551 41.45227539 7.61385742 40.375 7.875 C39.31007324 8.13748535 38.24514648 8.3999707 37.14794922 8.67041016 C10.82692087 15 10.82692087 15 2 15 C1.72313037 20.00416214 1.49665461 24.41434788 3.5625 29.0625 C5.44732646 33.49632986 5.33232627 37.38944989 4 42 C1.9375 45.0625 1.9375 45.0625 0 47 C-0.66 46.67 -1.32 46.34 -2 46 C-1.01 45.071875 -1.01 45.071875 0 44.125 C2.74035363 39.84319745 2.72534086 35.97617569 2 31 C1.34 30.01 0.68 29.02 0 28 C-0.22705078 25.08911133 -0.22705078 25.08911133 -0.1953125 21.58203125 C-0.18886719 20.32841797 -0.18242188 19.07480469 -0.17578125 17.78320312 C-0.15902344 16.47287109 -0.14226563 15.16253906 -0.125 13.8125 C-0.11496639 12.47722013 -0.1058412 11.14193311 -0.09765625 9.80664062 C-0.07405292 6.53757985 -0.04112594 3.26887972 0 0 Z " fill="#C243C0" transform="translate(590,298)"/>
<path d="M0 0 C12.98730407 9.74047805 21.59646684 25.00737908 24 41 C24.46147228 48.23943466 24.28451499 55.50133265 24.1875 62.75 C24.17242319 64.71873974 24.1587401 66.68749067 24.14648438 68.65625 C24.11372255 73.43778058 24.06210638 78.21876423 24 83 C20.535 83.495 20.535 83.495 17 84 C16.97812622 82.42085815 16.97812622 82.42085815 16.95581055 80.80981445 C16.89710697 76.84156104 16.81989074 72.87383323 16.73754883 68.90600586 C16.70463379 67.20036454 16.67650214 65.49462303 16.65356445 63.78881836 C16.52393811 54.39780346 16.13930102 45.65346506 13.6809082 36.54321289 C13 34 13 34 12.5 30.125 C11.49555831 23.84723942 8.33102056 18.64339465 5 13.3125 C4.319375 12.21550781 3.63875 11.11851562 2.9375 9.98828125 C1.37248038 7.57449091 -0.23405024 5.26814173 -2 3 C-1.34 2.01 -0.68 1.02 0 0 Z " fill="#AA60CC" transform="translate(556,239)"/>
<path d="M0 0 C4.98100887 2.75684356 7.81611258 6.7221984 9.45703125 12.15234375 C9.45703125 13.47234375 9.45703125 14.79234375 9.45703125 16.15234375 C-3.41296875 16.15234375 -16.28296875 16.15234375 -29.54296875 16.15234375 C-28.30369095 8.71667694 -26.31964487 5.45639415 -20.60546875 0.71484375 C-14.52255379 -2.35329318 -6.34508852 -2.11502951 0 0 Z " fill="#FEFCFA" transform="translate(782.54296875,686.84765625)"/>
<path d="M0 0 C-0.33 0.33 -0.66 0.66 -1 1 C10.61691719 2.14581863 22.17733475 2.10061736 33.83747864 2.04673767 C40.04657471 2.01931126 46.25569666 2.01177797 52.46484375 2.00390625 C53.1243934 2.00294543 53.78394304 2.00198462 54.46347904 2.00099468 C71.1949851 1.97828363 87.92529841 2.09399655 104.65625 2.21875 C106.17790723 2.22995038 107.69956454 2.24114016 109.22122192 2.25231934 C117.64624396 2.31447705 126.07124392 2.37928186 134.49623585 2.44538307 C142.43436886 2.50756991 150.37252041 2.56722685 158.31067371 2.62675762 C174.54046996 2.74852237 190.77024238 2.87318905 207 3 C207 3.33 207 3.66 207 4 C128.79 4 50.58 4 -30 4 C-27.33591885 1.33591885 -25.84654437 1.67849134 -22.125 1.5 C-16.45882415 1.16002945 -11.02830448 0.39427943 -5.4609375 -0.6953125 C-3 -1 -3 -1 0 0 Z " fill="#F77D62" transform="translate(454,583)"/>
<path d="M0 0 C12.97899747 -0.48757973 26.05177093 -0.97411453 38 5 C38 5.66 38 6.32 38 7 C36.68 6.67 35.36 6.34 34 6 C33.34 6.99 32.68 7.98 32 9 C31.42145264 8.88406494 30.84290527 8.76812988 30.24682617 8.64868164 C15.22996416 5.56586543 15.22996416 5.56586543 0 4 C0 2.66666667 0 1.33333333 0 0 Z " fill="#7E35C9" transform="translate(504,217)"/>
<path d="M0 0 C0.66 0 1.32 0 2 0 C2.02503974 4.88891238 2.0430178 9.77778603 2.05493164 14.66674805 C2.05990735 16.32398124 2.06669032 17.98121017 2.07543945 19.63842773 C2.12605676 29.48498217 1.97325358 39.19175447 1 49 C0.67 49 0.34 49 0 49 C-0.144375 47.906875 -0.28875 46.81375 -0.4375 45.6875 C-0.88288104 42.06877013 -0.88288104 42.06877013 -2 39 C-1.66455078 37.05126953 -1.66455078 37.05126953 -1.0703125 34.7578125 C0.43038687 27.81928483 0.21614622 20.94233742 0.125 13.875 C0.11494282 12.52344419 0.10582184 11.17188107 0.09765625 9.8203125 C0.07427319 6.54668442 0.04150061 3.27344006 0 0 Z " fill="#F66581" transform="translate(448,439)"/>
<path d="M0 0 C0 0.33 0 0.66 0 1 C-1.58941406 1.05607422 -1.58941406 1.05607422 -3.2109375 1.11328125 C-4.59899424 1.17893258 -5.98701349 1.24538021 -7.375 1.3125 C-8.07367187 1.33505859 -8.77234375 1.35761719 -9.4921875 1.38085938 C-11.77288941 1.46984296 -11.77288941 1.46984296 -15 2 C-15.99 3.485 -15.99 3.485 -17 5 C-19.09375 5.546875 -19.09375 5.546875 -21.5 5.75 C-22.69109375 5.86601562 -22.69109375 5.86601562 -23.90625 5.984375 C-26 6 -26 6 -28 5 C-28 4.01 -28 3.02 -28 2 C-18.76544501 -0.59866874 -9.495025 -0.18617696 0 0 Z " fill="#9D5BD7" transform="translate(521,216)"/>
<path d="M0 0 C0.66 0.33 1.32 0.66 2 1 C-27.13002911 15.89771793 -27.13002911 15.89771793 -34 14 C-33.43192627 13.78907715 -32.86385254 13.5781543 -32.27856445 13.36083984 C-22.09815286 9.56775411 -12.02975949 5.79177354 -2.30078125 0.93359375 C-1.54152344 0.62550781 -0.78226563 0.31742188 0 0 Z " fill="#F3856C" transform="translate(538,554)"/>
<path d="M0 0 C4.58848483 5.79598083 8.58442776 11.63902438 10 19 C9.5390625 21.203125 9.5390625 21.203125 9 23 C8.60167969 22.18015625 8.20335937 21.3603125 7.79296875 20.515625 C7.26316406 19.43796875 6.73335937 18.3603125 6.1875 17.25 C5.66542969 16.18265625 5.14335938 15.1153125 4.60546875 14.015625 C3.1364687 11.04558298 3.1364687 11.04558298 1.3125 8.84375 C-0.70364122 6.01155162 -0.1941665 3.36555273 0 0 Z " fill="#9041C0" transform="translate(560,250)"/>
<path d="M0 0 C-0.33 0.33 -0.66 0.66 -1 1 C1.31 1.33 3.62 1.66 6 2 C6 2.33 6 2.66 6 3 C-2.58 3 -11.16 3 -20 3 C-20 2.67 -20 2.34 -20 2 C-17.23062417 1.47007619 -14.45996921 0.9507542 -11.6875 0.4375 C-10.90181641 0.28603516 -10.11613281 0.13457031 -9.30664062 -0.02148438 C-8.54931641 -0.16005859 -7.79199219 -0.29863281 -7.01171875 -0.44140625 C-6.31522217 -0.57232666 -5.61872559 -0.70324707 -4.90112305 -0.83813477 C-3 -1 -3 -1 0 0 Z " fill="#FA7C46" transform="translate(454,583)"/>
<path d="M0 0 C2.99628539 2.99628539 2.7249286 6.58493471 3.125 10.625 C3.21136719 11.42679687 3.29773438 12.22859375 3.38671875 13.0546875 C3.59896327 15.03563635 3.80049931 17.01772718 4 19 C2.68 19 1.36 19 0 19 C0 12.73 0 6.46 0 0 Z " fill="#DE2B8F" transform="translate(657,387)"/>
<path d="M0 0 C0.33 0 0.66 0 1 0 C1 5.94 1 11.88 1 18 C2.32 18 3.64 18 5 18 C5 14.04 5 10.08 5 6 C5.33 6 5.66 6 6 6 C6 10.29 6 14.58 6 19 C3.69 19.33 1.38 19.66 -1 20 C-0.67 13.4 -0.34 6.8 0 0 Z " fill="#A44CBF" transform="translate(574,303)"/>
<path d="M0 0 C0.33 0 0.66 0 1 0 C1 10.56 1 21.12 1 32 C-1.475 32.495 -1.475 32.495 -4 33 C-3.67 32.34 -3.34 31.68 -3 31 C-2.34 31 -1.68 31 -1 31 C-0.67 20.77 -0.34 10.54 0 0 Z " fill="#A544BF" transform="translate(445,289)"/>
<path d="M0 0 C0.33 0 0.66 0 1 0 C1 4.95 1 9.9 1 15 C0.67 15 0.34 15 0 15 C-0.144375 13.906875 -0.28875 12.81375 -0.4375 11.6875 C-0.88288104 8.06877013 -0.88288104 8.06877013 -2 5 C-1.0625 2.3125 -1.0625 2.3125 0 0 Z " fill="#F06664" transform="translate(448,473)"/>
<path d="M0 0 C0 3 0 3 -2.375 5.6875 C-5 8 -5 8 -7 8 C-5.50902342 4.2047869 -3.24299151 2.38957269 0 0 Z " fill="#F78947" transform="translate(705,674)"/>
<path d="M0 0 C2.31 0.33 4.62 0.66 7 1 C7 1.66 7 2.32 7 3 C2.25 4.125 2.25 4.125 0 3 C0 2.01 0 1.02 0 0 Z " fill="#9754D3" transform="translate(493,218)"/>
<path d="M0 0 C0 3 0 3 -2.375 5.6875 C-5 8 -5 8 -7 8 C-5.50902342 4.2047869 -3.24299151 2.38957269 0 0 Z " fill="#B343B0" transform="translate(359,677)"/>
<path d="M0 0 C-1 2 -1 2 -3.3125 3.1875 C-6.11989571 4.03624754 -7.301935 3.99928333 -10 3 C-6.48812804 0.59185923 -4.27343092 -0.36629408 0 0 Z " fill="#9B58CE" transform="translate(492,220)"/>
<path d="M0 0 C0.66 0.33 1.32 0.66 2 1 C-2.455 4.465 -2.455 4.465 -7 8 C-7.66 7.34 -8.32 6.68 -9 6 C-6.03 4.02 -3.06 2.04 0 0 Z " fill="#F4746D" transform="translate(556,543)"/>
<path d="M0 0 C0 3 0 3 -2 5.1875 C-2.66 5.785625 -3.32 6.38375 -4 7 C-4.99 6.67 -5.98 6.34 -7 6 C-4.69 4.02 -2.38 2.04 0 0 Z " fill="#CE4295" transform="translate(451,674)"/>
<path d="M0 0 C-0.66 0.66 -1.32 1.32 -2 2 C-4.1640625 1.9765625 -4.1640625 1.9765625 -6.625 1.625 C-7.44226563 1.51414062 -8.25953125 1.40328125 -9.1015625 1.2890625 C-9.72804688 1.19367187 -10.35453125 1.09828125 -11 1 C-11 0.67 -11 0.34 -11 0 C-3.375 -1.125 -3.375 -1.125 0 0 Z " fill="#F68D5C" transform="translate(454,583)"/>
</svg>
